<mxfile host="app.diagrams.net" modified="2022-06-29T07:10:36.079Z" agent="5.0 (Windows NT 10.0; Win64; x64) AppleWebKit/537.36 (KHTML, like Gecko) Chrome/102.0.0.0 Safari/537.36" etag="oqqesfU8Ns0o-eUf0pe4" version="20.0.3" type="github">
  <diagram id="KMLzPFCYPwNL3a2IKora" name="Page-1">
    <mxGraphModel dx="2031" dy="1134" grid="1" gridSize="10" guides="1" tooltips="1" connect="1" arrows="1" fold="1" page="1" pageScale="1" pageWidth="827" pageHeight="1169" math="0" shadow="0">
      <root>
        <mxCell id="0" />
        <mxCell id="1" parent="0" />
        <mxCell id="se5E7Arf67xWCam7YA4U-5" value="" style="edgeStyle=orthogonalEdgeStyle;rounded=0;orthogonalLoop=1;jettySize=auto;html=1;fontSize=18;fontStyle=1;strokeWidth=4;" edge="1" parent="1" source="se5E7Arf67xWCam7YA4U-2" target="se5E7Arf67xWCam7YA4U-4">
          <mxGeometry relative="1" as="geometry" />
        </mxCell>
        <mxCell id="se5E7Arf67xWCam7YA4U-2" value="阶段1" style="rounded=1;whiteSpace=wrap;html=1;fontSize=18;fontStyle=1;strokeWidth=4;" vertex="1" parent="1">
          <mxGeometry x="280" y="320" width="120" height="80" as="geometry" />
        </mxCell>
        <mxCell id="se5E7Arf67xWCam7YA4U-6" style="edgeStyle=orthogonalEdgeStyle;rounded=0;orthogonalLoop=1;jettySize=auto;html=1;exitX=1;exitY=0.5;exitDx=0;exitDy=0;entryX=0;entryY=0.5;entryDx=0;entryDy=0;fontSize=18;fontStyle=1;strokeWidth=4;" edge="1" parent="1" source="se5E7Arf67xWCam7YA4U-3" target="se5E7Arf67xWCam7YA4U-2">
          <mxGeometry relative="1" as="geometry" />
        </mxCell>
        <mxCell id="se5E7Arf67xWCam7YA4U-3" value="开始" style="ellipse;whiteSpace=wrap;html=1;fontSize=18;fontStyle=1;strokeWidth=4;" vertex="1" parent="1">
          <mxGeometry x="80" y="320" width="120" height="80" as="geometry" />
        </mxCell>
        <mxCell id="se5E7Arf67xWCam7YA4U-8" value="" style="edgeStyle=orthogonalEdgeStyle;rounded=0;orthogonalLoop=1;jettySize=auto;html=1;fontSize=18;fontStyle=1;strokeWidth=4;" edge="1" parent="1" source="se5E7Arf67xWCam7YA4U-4" target="se5E7Arf67xWCam7YA4U-7">
          <mxGeometry relative="1" as="geometry" />
        </mxCell>
        <mxCell id="se5E7Arf67xWCam7YA4U-4" value="阶段2" style="rounded=1;whiteSpace=wrap;html=1;fontSize=18;fontStyle=1;strokeWidth=4;" vertex="1" parent="1">
          <mxGeometry x="480" y="320" width="120" height="80" as="geometry" />
        </mxCell>
        <mxCell id="se5E7Arf67xWCam7YA4U-10" value="" style="edgeStyle=orthogonalEdgeStyle;rounded=0;orthogonalLoop=1;jettySize=auto;html=1;fontSize=18;fontStyle=1;strokeWidth=4;" edge="1" parent="1" source="se5E7Arf67xWCam7YA4U-7" target="se5E7Arf67xWCam7YA4U-9">
          <mxGeometry relative="1" as="geometry" />
        </mxCell>
        <mxCell id="se5E7Arf67xWCam7YA4U-7" value="……" style="rounded=1;whiteSpace=wrap;html=1;fontSize=18;fontStyle=1;strokeWidth=4;" vertex="1" parent="1">
          <mxGeometry x="680" y="320" width="120" height="80" as="geometry" />
        </mxCell>
        <mxCell id="se5E7Arf67xWCam7YA4U-13" style="edgeStyle=orthogonalEdgeStyle;rounded=0;orthogonalLoop=1;jettySize=auto;html=1;exitX=1;exitY=0.5;exitDx=0;exitDy=0;fontSize=18;fontStyle=1;strokeWidth=4;" edge="1" parent="1" source="se5E7Arf67xWCam7YA4U-9" target="se5E7Arf67xWCam7YA4U-12">
          <mxGeometry relative="1" as="geometry" />
        </mxCell>
        <mxCell id="se5E7Arf67xWCam7YA4U-9" value="阶段n" style="rounded=1;whiteSpace=wrap;html=1;fontSize=18;fontStyle=1;strokeWidth=4;" vertex="1" parent="1">
          <mxGeometry x="880" y="320" width="120" height="80" as="geometry" />
        </mxCell>
        <mxCell id="se5E7Arf67xWCam7YA4U-12" value="结束" style="ellipse;whiteSpace=wrap;html=1;fontSize=18;fontStyle=1;strokeWidth=4;" vertex="1" parent="1">
          <mxGeometry x="1080" y="320" width="120" height="80" as="geometry" />
        </mxCell>
        <mxCell id="se5E7Arf67xWCam7YA4U-47" style="edgeStyle=none;rounded=0;orthogonalLoop=1;jettySize=auto;html=1;exitX=0.5;exitY=0;exitDx=0;exitDy=0;exitPerimeter=0;entryX=0.5;entryY=1;entryDx=0;entryDy=0;dashed=1;fontSize=22;strokeWidth=4;" edge="1" parent="1" source="se5E7Arf67xWCam7YA4U-14" target="se5E7Arf67xWCam7YA4U-9">
          <mxGeometry relative="1" as="geometry" />
        </mxCell>
        <mxCell id="se5E7Arf67xWCam7YA4U-14" value="特殊角色1" style="shape=umlActor;verticalLabelPosition=bottom;verticalAlign=top;html=1;outlineConnect=0;fontSize=18;strokeWidth=4;fillColor=#f8cecc;strokeColor=#b85450;" vertex="1" parent="1">
          <mxGeometry x="980" y="560" width="60" height="120" as="geometry" />
        </mxCell>
        <mxCell id="se5E7Arf67xWCam7YA4U-17" value="特殊角色n" style="shape=umlActor;verticalLabelPosition=bottom;verticalAlign=top;html=1;outlineConnect=0;fontSize=18;strokeWidth=4;fillColor=#f8cecc;strokeColor=#b85450;" vertex="1" parent="1">
          <mxGeometry x="1140" y="560" width="60" height="120" as="geometry" />
        </mxCell>
        <mxCell id="se5E7Arf67xWCam7YA4U-43" style="rounded=0;orthogonalLoop=1;jettySize=auto;html=1;exitX=0.5;exitY=0;exitDx=0;exitDy=0;exitPerimeter=0;entryX=0.5;entryY=1;entryDx=0;entryDy=0;fontSize=22;strokeWidth=4;dashed=1;" edge="1" parent="1" source="se5E7Arf67xWCam7YA4U-19" target="se5E7Arf67xWCam7YA4U-2">
          <mxGeometry relative="1" as="geometry" />
        </mxCell>
        <mxCell id="se5E7Arf67xWCam7YA4U-19" value="流程角色1" style="shape=umlActor;verticalLabelPosition=bottom;verticalAlign=top;html=1;outlineConnect=0;fontSize=18;strokeWidth=4;fillColor=#dae8fc;strokeColor=#6c8ebf;" vertex="1" parent="1">
          <mxGeometry x="120" y="560" width="60" height="120" as="geometry" />
        </mxCell>
        <mxCell id="se5E7Arf67xWCam7YA4U-44" style="edgeStyle=none;rounded=0;orthogonalLoop=1;jettySize=auto;html=1;exitX=0.5;exitY=0;exitDx=0;exitDy=0;exitPerimeter=0;entryX=0.5;entryY=1;entryDx=0;entryDy=0;dashed=1;fontSize=22;strokeWidth=4;" edge="1" parent="1" source="se5E7Arf67xWCam7YA4U-20" target="se5E7Arf67xWCam7YA4U-4">
          <mxGeometry relative="1" as="geometry" />
        </mxCell>
        <mxCell id="se5E7Arf67xWCam7YA4U-20" value="流程角色2" style="shape=umlActor;verticalLabelPosition=bottom;verticalAlign=top;html=1;outlineConnect=0;fontSize=18;strokeWidth=4;fillColor=#dae8fc;strokeColor=#6c8ebf;" vertex="1" parent="1">
          <mxGeometry x="320" y="560" width="60" height="120" as="geometry" />
        </mxCell>
        <mxCell id="se5E7Arf67xWCam7YA4U-45" style="edgeStyle=none;rounded=0;orthogonalLoop=1;jettySize=auto;html=1;exitX=0.5;exitY=0;exitDx=0;exitDy=0;exitPerimeter=0;entryX=0.42;entryY=1.039;entryDx=0;entryDy=0;entryPerimeter=0;dashed=1;fontSize=22;strokeWidth=4;" edge="1" parent="1" source="se5E7Arf67xWCam7YA4U-21" target="se5E7Arf67xWCam7YA4U-7">
          <mxGeometry relative="1" as="geometry" />
        </mxCell>
        <mxCell id="se5E7Arf67xWCam7YA4U-59" style="edgeStyle=none;rounded=0;orthogonalLoop=1;jettySize=auto;html=1;exitX=0.5;exitY=0;exitDx=0;exitDy=0;exitPerimeter=0;entryX=0.5;entryY=1;entryDx=0;entryDy=0;dashed=1;fontSize=22;strokeWidth=4;" edge="1" parent="1" source="se5E7Arf67xWCam7YA4U-21" target="se5E7Arf67xWCam7YA4U-4">
          <mxGeometry relative="1" as="geometry" />
        </mxCell>
        <mxCell id="se5E7Arf67xWCam7YA4U-21" value="……" style="shape=umlActor;verticalLabelPosition=bottom;verticalAlign=top;html=1;outlineConnect=0;fontSize=18;strokeWidth=4;fillColor=#dae8fc;strokeColor=#6c8ebf;" vertex="1" parent="1">
          <mxGeometry x="520" y="560" width="60" height="120" as="geometry" />
        </mxCell>
        <mxCell id="se5E7Arf67xWCam7YA4U-46" style="edgeStyle=none;rounded=0;orthogonalLoop=1;jettySize=auto;html=1;exitX=0.5;exitY=0;exitDx=0;exitDy=0;exitPerimeter=0;entryX=0.5;entryY=1;entryDx=0;entryDy=0;dashed=1;fontSize=22;strokeWidth=4;" edge="1" parent="1" source="se5E7Arf67xWCam7YA4U-22" target="se5E7Arf67xWCam7YA4U-9">
          <mxGeometry relative="1" as="geometry" />
        </mxCell>
        <mxCell id="se5E7Arf67xWCam7YA4U-22" value="流程角色n" style="shape=umlActor;verticalLabelPosition=bottom;verticalAlign=top;html=1;outlineConnect=0;fontSize=18;strokeWidth=4;fillColor=#dae8fc;strokeColor=#6c8ebf;" vertex="1" parent="1">
          <mxGeometry x="720" y="560" width="60" height="120" as="geometry" />
        </mxCell>
        <mxCell id="se5E7Arf67xWCam7YA4U-27" value="……" style="shape=umlActor;verticalLabelPosition=bottom;verticalAlign=top;html=1;outlineConnect=0;fontSize=18;strokeWidth=4;fillColor=#f8cecc;strokeColor=#b85450;" vertex="1" parent="1">
          <mxGeometry x="1060" y="560" width="60" height="120" as="geometry" />
        </mxCell>
        <mxCell id="se5E7Arf67xWCam7YA4U-48" style="edgeStyle=none;rounded=0;orthogonalLoop=1;jettySize=auto;html=1;exitX=0.5;exitY=0;exitDx=0;exitDy=0;exitPerimeter=0;dashed=1;fontSize=22;strokeWidth=4;" edge="1" parent="1" source="se5E7Arf67xWCam7YA4U-35">
          <mxGeometry relative="1" as="geometry">
            <mxPoint x="150" y="720" as="targetPoint" />
          </mxGeometry>
        </mxCell>
        <mxCell id="se5E7Arf67xWCam7YA4U-54" style="edgeStyle=none;rounded=0;orthogonalLoop=1;jettySize=auto;html=1;exitX=0.5;exitY=0;exitDx=0;exitDy=0;exitPerimeter=0;dashed=1;fontSize=22;strokeWidth=4;" edge="1" parent="1" source="se5E7Arf67xWCam7YA4U-35">
          <mxGeometry relative="1" as="geometry">
            <mxPoint x="1000" y="720" as="targetPoint" />
          </mxGeometry>
        </mxCell>
        <mxCell id="se5E7Arf67xWCam7YA4U-35" value="表单1" style="shape=note;whiteSpace=wrap;html=1;backgroundOutline=1;darkOpacity=0.05;fontSize=22;strokeWidth=4;verticalAlign=top;fontStyle=1" vertex="1" parent="1">
          <mxGeometry x="80" y="880" width="200" height="250" as="geometry" />
        </mxCell>
        <mxCell id="se5E7Arf67xWCam7YA4U-49" style="edgeStyle=none;rounded=0;orthogonalLoop=1;jettySize=auto;html=1;exitX=0.5;exitY=0;exitDx=0;exitDy=0;exitPerimeter=0;dashed=1;fontSize=22;strokeWidth=4;" edge="1" parent="1" source="se5E7Arf67xWCam7YA4U-36">
          <mxGeometry relative="1" as="geometry">
            <mxPoint x="360" y="720" as="targetPoint" />
          </mxGeometry>
        </mxCell>
        <mxCell id="se5E7Arf67xWCam7YA4U-50" style="edgeStyle=none;rounded=0;orthogonalLoop=1;jettySize=auto;html=1;exitX=0.5;exitY=0;exitDx=0;exitDy=0;exitPerimeter=0;dashed=1;fontSize=22;strokeWidth=4;" edge="1" parent="1" source="se5E7Arf67xWCam7YA4U-36">
          <mxGeometry relative="1" as="geometry">
            <mxPoint x="550" y="720" as="targetPoint" />
          </mxGeometry>
        </mxCell>
        <mxCell id="se5E7Arf67xWCam7YA4U-51" style="edgeStyle=none;rounded=0;orthogonalLoop=1;jettySize=auto;html=1;exitX=0.5;exitY=0;exitDx=0;exitDy=0;exitPerimeter=0;dashed=1;fontSize=22;strokeWidth=4;" edge="1" parent="1" source="se5E7Arf67xWCam7YA4U-36">
          <mxGeometry relative="1" as="geometry">
            <mxPoint x="750" y="720" as="targetPoint" />
          </mxGeometry>
        </mxCell>
        <mxCell id="se5E7Arf67xWCam7YA4U-55" style="edgeStyle=none;rounded=0;orthogonalLoop=1;jettySize=auto;html=1;exitX=0.5;exitY=0;exitDx=0;exitDy=0;exitPerimeter=0;dashed=1;fontSize=22;strokeWidth=4;" edge="1" parent="1" source="se5E7Arf67xWCam7YA4U-36">
          <mxGeometry relative="1" as="geometry">
            <mxPoint x="1000" y="720" as="targetPoint" />
          </mxGeometry>
        </mxCell>
        <mxCell id="se5E7Arf67xWCam7YA4U-36" value="表单2" style="shape=note;whiteSpace=wrap;html=1;backgroundOutline=1;darkOpacity=0.05;fontSize=22;strokeWidth=4;verticalAlign=top;fontStyle=1" vertex="1" parent="1">
          <mxGeometry x="360" y="880" width="200" height="250" as="geometry" />
        </mxCell>
        <mxCell id="se5E7Arf67xWCam7YA4U-53" style="edgeStyle=none;rounded=0;orthogonalLoop=1;jettySize=auto;html=1;exitX=0.5;exitY=0;exitDx=0;exitDy=0;exitPerimeter=0;dashed=1;fontSize=22;strokeWidth=4;" edge="1" parent="1" source="se5E7Arf67xWCam7YA4U-37">
          <mxGeometry relative="1" as="geometry">
            <mxPoint x="750" y="720" as="targetPoint" />
          </mxGeometry>
        </mxCell>
        <mxCell id="se5E7Arf67xWCam7YA4U-58" style="edgeStyle=none;rounded=0;orthogonalLoop=1;jettySize=auto;html=1;exitX=0.5;exitY=0;exitDx=0;exitDy=0;exitPerimeter=0;dashed=1;fontSize=22;strokeWidth=4;" edge="1" parent="1" source="se5E7Arf67xWCam7YA4U-37">
          <mxGeometry relative="1" as="geometry">
            <mxPoint x="1000" y="720" as="targetPoint" />
          </mxGeometry>
        </mxCell>
        <mxCell id="se5E7Arf67xWCam7YA4U-37" value="表单n" style="shape=note;whiteSpace=wrap;html=1;backgroundOutline=1;darkOpacity=0.05;fontSize=22;strokeWidth=4;verticalAlign=top;fontStyle=1" vertex="1" parent="1">
          <mxGeometry x="920" y="880" width="200" height="250" as="geometry" />
        </mxCell>
        <mxCell id="se5E7Arf67xWCam7YA4U-52" style="edgeStyle=none;rounded=0;orthogonalLoop=1;jettySize=auto;html=1;exitX=0.5;exitY=0;exitDx=0;exitDy=0;exitPerimeter=0;dashed=1;fontSize=22;strokeWidth=4;" edge="1" parent="1" source="se5E7Arf67xWCam7YA4U-38">
          <mxGeometry relative="1" as="geometry">
            <mxPoint x="550" y="720" as="targetPoint" />
          </mxGeometry>
        </mxCell>
        <mxCell id="se5E7Arf67xWCam7YA4U-56" style="edgeStyle=none;rounded=0;orthogonalLoop=1;jettySize=auto;html=1;exitX=0.5;exitY=0;exitDx=0;exitDy=0;exitPerimeter=0;dashed=1;fontSize=22;strokeWidth=4;" edge="1" parent="1" source="se5E7Arf67xWCam7YA4U-38">
          <mxGeometry relative="1" as="geometry">
            <mxPoint x="1000" y="720" as="targetPoint" />
          </mxGeometry>
        </mxCell>
        <mxCell id="se5E7Arf67xWCam7YA4U-38" value="……" style="shape=note;whiteSpace=wrap;html=1;backgroundOutline=1;darkOpacity=0.05;fontSize=22;strokeWidth=4;verticalAlign=top;fontStyle=1" vertex="1" parent="1">
          <mxGeometry x="640" y="880" width="200" height="250" as="geometry" />
        </mxCell>
      </root>
    </mxGraphModel>
  </diagram>
</mxfile>
